<svg viewBox="0 0 14 14" fill="none" xmlns="http://www.w3.org/2000/svg">
<path d="M4.5 12.5L0.5 13.5L1.5 10.5V1.5C1.5 1.23478 1.60536 0.98043 1.79289 0.792893C1.98043 0.605357 2.23478 0.5 2.5 0.5H12.5C12.7652 0.5 13.0196 0.605357 13.2071 0.792893C13.3946 0.98043 13.5 1.23478 13.5 1.5V11.5C13.5 11.7652 13.3946 12.0196 13.2071 12.2071C13.0196 12.3946 12.7652 12.5 12.5 12.5H4.5Z" stroke="black" stroke-linecap="round" stroke-linejoin="round"/>
<path d="M6 5C6 4.70333 6.08797 4.41332 6.2528 4.16665C6.41762 3.91997 6.65189 3.72771 6.92597 3.61418C7.20006 3.50065 7.50166 3.47094 7.79264 3.52882C8.08361 3.5867 8.35088 3.72956 8.56066 3.93934C8.77044 4.14912 8.9133 4.41639 8.97118 4.70737C9.02906 4.99834 8.99935 5.29994 8.88582 5.57403C8.77229 5.84811 8.58003 6.08238 8.33335 6.2472C8.08668 6.41203 7.79667 6.5 7.5 6.5V7.5" stroke="black" stroke-linecap="round" stroke-linejoin="round"/>
<path d="M7.5 10C7.36193 10 7.25 9.88807 7.25 9.75C7.25 9.61193 7.36193 9.5 7.5 9.5" stroke="black" stroke-linecap="round" stroke-linejoin="round"/>
<path d="M7.5 10C7.63807 10 7.75 9.88807 7.75 9.75C7.75 9.61193 7.63807 9.5 7.5 9.5" stroke="black" stroke-linecap="round" stroke-linejoin="round"/>
</svg>
