<svg viewBox="0 0 14 14" fill="none" xmlns="http://www.w3.org/2000/svg">
<path d="M7 13.5V8.25C7 7.91848 7.1317 7.60054 7.36612 7.36612C7.60054 7.1317 7.91848 7 8.25 7V7C8.58152 7 8.89946 7.1317 9.13388 7.36612C9.3683 7.60054 9.5 7.91848 9.5 8.25V11H11.5C12.0304 11 12.5391 11.2107 12.9142 11.5858C13.2893 11.9609 13.5 12.4696 13.5 13V13.5" stroke="black" stroke-linecap="round" stroke-linejoin="round"/>
<path d="M6.25739 3.09514C5.01089 1.72345 3.33822 0.812215 1.50977 0.508751C1.38536 0.491132 1.25862 0.500185 1.13798 0.53531C1.01733 0.570434 0.905541 0.630826 0.810029 0.712473C0.712804 0.795633 0.634748 0.898868 0.581232 1.01508C0.527715 1.13128 0.500008 1.25771 0.500016 1.38564V8.51593C0.498688 8.7349 0.578517 8.94661 0.724097 9.11018C0.869678 9.27375 1.07069 9.3776 1.28833 9.40168C2.71644 9.59538 4.05939 10.1605 5.18829 11.0293" stroke="black" stroke-linecap="round" stroke-linejoin="round"/>
<path d="M6.25781 5.8584V3.09521" stroke="black" stroke-linecap="round" stroke-linejoin="round"/>
<path d="M11.2264 9.40168C11.444 9.3776 11.645 9.27375 11.7906 9.11018C11.9362 8.94661 12.016 8.7349 12.0147 8.51593V1.38564C12.0147 1.25771 11.987 1.13128 11.9335 1.01508C11.88 0.898868 11.8019 0.795633 11.7047 0.712473C11.6092 0.630826 11.4974 0.570434 11.3767 0.53531C11.2561 0.500185 11.1294 0.491132 11.0049 0.508751C9.1765 0.812215 7.50383 1.72345 6.25732 3.09514" stroke="black" stroke-linecap="round" stroke-linejoin="round"/>
</svg>
